<svg width="332" height="41" viewBox="0 0 332 41" fill="none" xmlns="http://www.w3.org/2000/svg">
<g clip-path="url(#clip0)">
<path d="M77.292 15.094H49.249L48.21 15.871V40.818H55.973V31.463L56.714 30.799H77.293C82.489 30.799 84.925 29.401 84.925 25.814V20.086C84.924 16.493 82.489 15.094 77.292 15.094ZM77.292 24.317C77.292 26.007 76.174 26.358 73.738 26.358H56.799L55.972 25.554V20.21L56.713 19.532H73.738C76.174 19.532 77.292 19.879 77.292 21.577V24.317Z" fill="white"/>
<path d="M99.081 19.813L105.761 29.6L105.391 30.548H90.618L86.847 35.187H108.837L110.361 36.115L113.775 40.824H122.659L103.186 14.775" fill="white"/>
<path d="M187.418 35.757V28.833L188.217 28.143H203.079V23.734H179.524V40.823H214.27V36.435H188.252" fill="white"/>
<path d="M214.637 15.094H179.524V19.942H214.637V15.094Z" fill="white"/>
<path d="M140.361 19.685H168.649C168.213 16.088 165.981 15.09 160.319 15.09H140.06C133.671 15.09 131.633 16.337 131.633 21.172V34.737C131.633 39.577 133.671 40.824 140.06 40.824H160.319C166.064 40.824 168.264 39.745 168.414 36.014H140.361L139.529 35.231V20.209" fill="white"/>
<path d="M29.333 25.118H8.754L8.148 24.451V20.049L8.751 19.583H36.493L36.872 18.656C35.927 16.225 33.48 15.091 28.936 15.091H9.665C3.28 15.091 1.239 16.338 1.239 21.173V24.017C1.239 28.858 3.28 30.103 9.665 30.103H30.198L30.843 30.669V35.271L30.317 35.989H6.83V35.967H0.678001C0.678001 35.967 -0.0259986 36.32 0.00100138 36.485C0.526001 39.867 2.83 40.825 8.346 40.825H29.333C35.717 40.825 37.819 39.578 37.819 34.738V31.195C37.819 26.363 35.717 25.118 29.333 25.118Z" fill="white"/>
<path d="M236.725 14.988H225.174L224.547 16.181L237.375 25.532C239.805 24.125 242.449 22.699 245.325 21.292" fill="white"/>
<path d="M247.075 32.603L258.35 40.825H270.042L270.526 39.736L253.69 27.413C251.454 29.054 249.245 30.787 247.075 32.603Z" fill="white"/>
<path d="M235.006 40.806H224.555L223.672 39.423C230.778 32.562 262.56 3.151 331.644 0C331.644 0 273.658 1.956 235.006 40.806Z" fill="white"/>
</g>
<defs>
<clipPath id="clip0">
<rect width="331.644" height="40.825" fill="white"/>
</clipPath>
</defs>
</svg>